<svg xmlns="http://www.w3.org/2000/svg" viewBox="0 0 100 100">
  <defs>
    <style>
      .sprite { display: none; }
      .sprite:target { display: inline; }
    </style>
  </defs>
  <g class="sprite" id="circle">
    <circle cx="50" cy="50" r="45" stroke-width="5" stroke="#0f0" fill="#0f0" fill-opacity="0.5"/>
  </g>
  <g class="sprite" id="square">
    <rect y="5" x="5" width="90" height="90" stroke-width="5" stroke="#f00" fill="#f00" fill-opacity="0.5"/>
  </g>
  <g class="sprite" id="triangle">
    <path d="M20,7 L92,50 L6,93 z" stroke-width="5" stroke="#00f" fill="#00f" fill-opacity="0.5"/>
  </g>
  <g id="myAWSIcon" class="sprite" fill="none" fill-rule="evenodd"><path fill="#E7157B" d="M0 0h40v40H0z"/><path d="M24.5 22c1.93 0 3.5 1.57 3.5 3.5S26.43 29 24.5 29 21 27.43 21 25.5s1.57-3.5 3.5-3.5Zm0 8c2.481 0 4.5-2.019 4.5-4.5S26.981 21 24.5 21a4.505 4.505 0 0 0-4.5 4.5c0 2.481 2.019 4.5 4.5 4.5Zm1.523-19.12L29.084 17h-6.121l3.06-6.12ZM22.154 18h7.739a.502.502 0 0 0 .447-.724l-3.869-7.738c-.17-.338-.725-.338-.895 0l-3.869 7.738a.503.503 0 0 0 .447.724ZM11 23h7v-7h-7v7Zm-.5 1h8a.5.5 0 0 0 .5-.5v-8a.5.5 0 0 0-.5-.5h-8a.5.5 0 0 0-.5.5v8a.5.5 0 0 0 .5.5ZM8 32h24V8H8v24ZM32.5 7h-25a.5.5 0 0 0-.5.5v25a.5.5 0 0 0 .5.5h25a.5.5 0 0 0 .5-.5v-25a.5.5 0 0 0-.5-.5Z" fill="#FFF"/>
  </g>
</svg>